<svg width="32" height="32" viewBox="0 0 32 32" fill="none" xmlns="http://www.w3.org/2000/svg">
<g id="Icons">
<path id="Vector" d="M25.6401 20.347L22.2534 19.9603C21.8552 19.9136 21.4515 19.9577 21.0728 20.0893C20.6941 20.2209 20.3501 20.4367 20.0667 20.7203L17.6134 23.1737C13.8283 21.2486 10.7518 18.1721 8.82672 14.387L11.2934 11.9203C11.8667 11.347 12.1467 10.547 12.0534 9.73367L11.6667 6.37367C11.5911 5.72324 11.279 5.12332 10.7897 4.68814C10.3004 4.25295 9.6682 4.0129 9.01339 4.01367H6.70672C5.20005 4.01367 3.94672 5.26701 4.04005 6.77367C4.74672 18.1603 13.8534 27.2537 25.2267 27.9603C26.7334 28.0537 27.9867 26.8003 27.9867 25.2937V22.987C28.0001 21.6403 26.9867 20.507 25.6401 20.347Z" fill="#030303"/>
</g>
</svg>
